# xmcd
#
# Track frame offsets: 
#        182
#        16492
#        32457
#        49132
#        63322
#        76515
#        93960
#        110517
#        126070
#        140660
#        158537
#        171915
#
# Disc length: 2490 seconds
#
# Revision: 1
# Processed by: cddbd v1.5.2PL0 Copyright (c) Steve Scherf et al.
# Submitted via: ExactAudioCopy v1.0b6
#
DISCID=8d09b80c
DTITLE=Leandro E Leonardo - Leandro E Leonardo (1994)
DYEAR=1994
DGENRE=Other
TTITLE0=Quem Será Essa Mulher
TTITLE1=Lágrimas Do Coração
TTITLE2=Quebra Esse Gelo
TTITLE3=Quarto Negro
TTITLE4=Paraíso
TTITLE5=É Por Você Que Canto
TTITLE6=Aqueles Olhos
TTITLE7=Entre Tapas E Beijos
TTITLE8=Teu Olhar
TTITLE9=Cai Na Real
TTITLE10=Semi-Luz
TTITLE11=Luar Do Sertão
EXTD=
EXTT0=
EXTT1=
EXTT2=
EXTT3=
EXTT4=
EXTT5=
EXTT6=
EXTT7=
EXTT8=
EXTT9=
EXTT10=
EXTT11=
PLAYORDER=
